<svg xmlns="http://www.w3.org/2000/svg" viewBox="0 0 64 64">
  <defs>
    <linearGradient id="blueGrad" x1="0" y1="0" x2="1" y2="1">
      <stop offset="0%" stop-color="#60a5fa"></stop>
      <stop offset="100%" stop-color="#3b82f6"></stop>
    </linearGradient>
    <linearGradient id="greenGrad" x1="0" y1="0" x2="1" y2="1">
      <stop offset="0%" stop-color="#6ee7b7"></stop>
      <stop offset="100%" stop-color="#14b8a6"></stop>
    </linearGradient>
  </defs>

  <!-- Background -->
  <rect width="64" height="64" rx="16" fill="#ffffff"></rect>

  <!-- Left page -->
  <path d="M12 14 h16 a4 4 0 0 1 4 4 v28 a4 4 0 0 1 -4 4 h-16 a4 4 0 0 1 -4 -4 v-28 a4 4 0 0 1 4 -4 z" fill="url(#blueGrad)"></path>

  <!-- Right page -->
  <path d="M36 14 h16 a4 4 0 0 1 4 4 v28 a4 4 0 0 1 -4 4 h-16 a4 4 0 0 1 -4 -4 v-28 a4 4 0 0 1 4 -4 z" fill="url(#greenGrad)"></path>

  <!-- Divider line -->
  <rect x="31" y="10" width="2" height="44" fill="#0f172a"></rect>

  <!-- Center circle -->
  <circle cx="32" cy="32" r="7" fill="#ffffff" stroke="#0f172a" stroke-width="1.5"></circle>

  <!-- <> symbol -->
  <text x="32" y="36" text-anchor="middle" font-size="9" fill="#0f172a" font-family="Arial, sans-serif">
    &lt;&gt;
  </text>

  <!-- Left "T" -->
  <text x="20" y="30" text-anchor="middle" font-size="12" fill="#0f172a" font-weight="bold">
    T
  </text>

  <!-- Right "T" -->
  <text x="44" y="30" text-anchor="middle" font-size="12" fill="#0f172a" font-weight="bold">
    T
  </text>

</svg>